<svg xmlns="http://www.w3.org/2000/svg" width="60" height="61" viewBox="0 0 60 61" fill="none">
  <path d="M30 55.753C16.1929 55.753 5 44.4218 5 30.4444C5 16.4668 16.1929 5.13574 30 5.13574C43.807 5.13574 55 16.4668 55 30.4444C55 44.4218 43.807 55.753 30 55.753ZM26.5547 21.3702C26.3905 21.2593 26.1975 21.2002 26 21.2002C25.4477 21.2002 25 21.6534 25 22.2125V38.6763C25 38.8762 25.0585 39.0716 25.168 39.2379C25.4742 39.703 26.0952 39.8288 26.5547 39.5185L38.752 31.2866C38.8617 31.2125 38.956 31.1171 39.0292 31.006C39.3357 30.5408 39.2115 29.9121 38.752 29.6021L26.5547 21.3702Z" fill="white" fill-opacity="0.81"/>
</svg>